<?xml version="1.0" encoding="utf-8"?>

<!-- The favicon uses the site's color scheme: #667eea (primary) and #764ba2 (accent) -->
<svg version="1.1" id="Icons" xmlns="http://www.w3.org/2000/svg" xmlns:xlink="http://www.w3.org/1999/xlink"
		 viewBox="0 0 32 32" xml:space="preserve">
	<defs />
	<rect x="0" y="0" width="32" height="32" rx="6" ry="6" fill="#667eea" />
	<style type="text/css">
		.st0{fill:none;stroke:#ffffff;stroke-width:2;stroke-linecap:round;stroke-linejoin:round;stroke-miterlimit:10;}
		.st1{fill:none;stroke:#ffffff;stroke-width:2;stroke-linejoin:round;stroke-miterlimit:10;}
	</style>
	<path class="st0" d="M3,5v16c0,1.1,0.9,2,2,2h22c1.1,0,2-0.9,2-2V5c0-1.1-0.9-2-2-2H5C3.9,3,3,3.9,3,5z"/>
	<line class="st0" x1="9" y1="29" x2="23" y2="29"/>
	<path class="st0" d="M13,23c0,2.1-0.7,4.6-1.8,6"/>
	<path class="st0" d="M20.8,29c-1.1-1.4-1.8-3.9-1.8-6"/>
	<circle cx="16" cy="13" r="6" fill="#764ba2" stroke="#ffffff" stroke-width="1.6"/>
	<polyline class="st0" points="16,9 16,13 19.5,11.8 "/>
</svg>